<?xml version="1.0" encoding="UTF-8"?><svg xmlns="http://www.w3.org/2000/svg" xmlns:xlink="http://www.w3.org/1999/xlink" viewBox="0 0 660.15 166.19"><defs><style>.cls-1{fill:url(#linear-gradient);}.cls-2{isolation:isolate;}.cls-3{mix-blend-mode:color;}.cls-4{fill:#104440;}</style><linearGradient id="linear-gradient" x1="6.93" y1="85.69" x2="141" y2="85.69" gradientUnits="userSpaceOnUse"><stop offset="0" stop-color="#69f06e"/><stop offset="1" stop-color="#03ff9e"/></linearGradient></defs><g class="cls-2"><g id="Layer_1"><path class="cls-4" d="M171.59,105.11h-12.13v-44.91h30.4c3.27,0,6.04.34,8.32,1.01,2.28.68,4.13,1.63,5.56,2.88,1.43,1.24,2.46,2.74,3.11,4.49.64,1.75.96,3.71.96,5.87,0,1.9-.27,3.55-.8,4.97-.53,1.42-1.25,2.63-2.16,3.65-.9,1.01-1.96,1.87-3.15,2.57-1.2.7-2.46,1.27-3.79,1.73l14.71,17.75h-14.19l-13.6-16.54h-13.24v16.54ZM195.55,74.38c0-.87-.11-1.61-.34-2.22-.23-.61-.63-1.11-1.19-1.49-.57-.38-1.32-.66-2.27-.83-.95-.17-2.13-.26-3.55-.26h-16.61v9.61h16.61c1.42,0,2.6-.09,3.55-.26.95-.17,1.7-.45,2.27-.83.57-.38.96-.88,1.19-1.49.23-.61.34-1.35.34-2.22Z"/><path class="cls-4" d="M221.3,105.11v-44.91h45.47v9.58h-33.02v7.42h31.32v9.58h-31.32v8.76h33.47v9.58h-45.93Z"/><path class="cls-4" d="M278.93,105.11v-44.91h12.13v35.07h32.79v9.84h-44.91Z"/><path class="cls-4" d="M369.65,96.61h-25.04l-4.22,8.5h-13.53l23.5-44.91h13.53l23.5,44.91h-13.53l-4.22-8.5ZM348.95,87.85h16.41l-8.17-16.54-8.24,16.54Z"/><path class="cls-4" d="M419.33,86.77v18.34h-12.09v-18.34l-21.77-26.58h13.6l14.25,18.08,14.19-18.08h13.6l-21.77,26.58Z"/><path class="cls-4" d="M525.87,92.72c0,1.74-.23,3.26-.69,4.54-.46,1.29-1.09,2.39-1.91,3.32s-1.8,1.68-2.94,2.26c-1.14.58-2.41,1.04-3.79,1.37-1.38.34-2.86.57-4.43.7-1.57.13-3.19.2-4.87.2h-32.59v-44.91h32c1.29,0,2.58.05,3.87.16,1.3.11,2.53.31,3.71.6,1.18.29,2.27.7,3.29,1.23,1.01.52,1.9,1.21,2.65,2.06s1.34,1.87,1.77,3.07c.42,1.2.64,2.62.64,4.25,0,2.92-.72,5.24-2.16,6.95-1.44,1.71-3.71,2.85-6.8,3.42,2.18.15,4.05.49,5.61,1,1.56.51,2.83,1.21,3.81,2.09.98.88,1.7,1.96,2.16,3.24s.69,2.76.69,4.46ZM510.73,73.5c0-.57-.09-1.11-.26-1.62-.17-.51-.49-.96-.95-1.36-.46-.39-1.08-.71-1.86-.95-.78-.24-1.79-.36-3.01-.36h-17.88v8.43h17.88c1.22,0,2.22-.11,3.01-.33.78-.22,1.41-.51,1.86-.88.46-.37.77-.81.95-1.32.17-.51.26-1.05.26-1.62ZM513.54,91.31c0-1.02-.17-1.85-.52-2.47-.35-.62-.89-1.1-1.63-1.44-.74-.34-1.7-.56-2.88-.67-1.18-.11-2.58-.16-4.22-.16h-17.52v9.51h17.52c1.63,0,3.04-.05,4.22-.16,1.18-.11,2.14-.34,2.88-.69.74-.35,1.29-.83,1.63-1.45.35-.62.52-1.44.52-2.47Z"/><path class="cls-4" d="M588.27,96.31c-1.11,1.98-2.78,3.72-5,5.2-2.22,1.48-5,2.65-8.32,3.51-3.32.86-7.21,1.29-11.65,1.29s-8.34-.43-11.69-1.29c-3.35-.86-6.13-2.03-8.35-3.51-2.22-1.48-3.89-3.21-5-5.2-1.11-1.98-1.67-4.1-1.67-6.34v-29.78h12.09v25.43c0,1.5.19,2.93.57,4.27.38,1.34,1.1,2.51,2.16,3.51,1.06,1,2.54,1.8,4.45,2.39,1.91.59,4.39.88,7.44.88s5.49-.29,7.39-.88c1.9-.59,3.37-1.38,4.43-2.39,1.06-1,1.77-2.17,2.14-3.51.37-1.34.56-2.76.56-4.27v-25.43h12.13v29.78c0,2.24-.56,4.36-1.67,6.34Z"/><path class="cls-4" d="M645.05,72.84c-.85-.41-1.97-.88-3.37-1.41-1.39-.52-2.97-1.02-4.74-1.49-1.77-.47-3.68-.86-5.75-1.18-2.07-.32-4.2-.47-6.37-.47-1.74,0-3.23.05-4.46.16-1.23.11-2.27.25-3.11.42-.84.17-1.5.38-1.99.6s-.87.46-1.13.7c-.26.24-.43.48-.51.72-.08.24-.11.46-.11.65,0,.65.33,1.23.98,1.72.65.49,1.55.93,2.68,1.31,1.13.38,2.45.74,3.96,1.08,1.5.34,3.1.69,4.79,1.05,1.69.36,3.43.75,5.23,1.18s3.54.92,5.23,1.49c1.69.57,3.29,1.23,4.79,1.98,1.5.75,2.82,1.63,3.96,2.63,1.13,1,2.03,2.16,2.68,3.46s.98,2.8.98,4.48c0,2.16-.38,4.01-1.14,5.56-.76,1.55-1.78,2.86-3.06,3.92-1.27,1.07-2.75,1.92-4.43,2.57-1.68.64-3.44,1.14-5.28,1.49-1.84.35-3.71.58-5.59.69-1.89.11-3.68.16-5.38.16-4.45,0-8.56-.37-12.34-1.1-3.78-.73-7.12-1.64-10.02-2.73v-10.72c2.99,1.66,6.39,2.95,10.22,3.89,3.82.94,7.92,1.41,12.27,1.41,2.57,0,4.67-.14,6.29-.41,1.62-.27,2.89-.62,3.81-1.05.92-.42,1.54-.89,1.86-1.39.33-.5.49-.98.49-1.44,0-.72-.33-1.35-.98-1.88-.65-.53-1.55-1-2.68-1.41-1.13-.4-2.45-.77-3.96-1.11s-3.1-.68-4.79-1.01c-1.69-.34-3.43-.7-5.21-1.1-1.79-.39-3.53-.85-5.21-1.39-1.69-.53-3.29-1.15-4.79-1.86-1.5-.71-2.82-1.55-3.96-2.52-1.13-.97-2.03-2.09-2.68-3.37-.65-1.27-.98-2.75-.98-4.43,0-1.98.35-3.69,1.05-5.13.7-1.44,1.64-2.66,2.83-3.68,1.19-1.01,2.56-1.84,4.12-2.47,1.56-.63,3.2-1.12,4.92-1.47,1.72-.35,3.46-.59,5.23-.72,1.77-.13,3.44-.2,5.03-.2,1.74,0,3.54.09,5.38.26,1.84.17,3.66.42,5.44.74,1.79.32,3.51.68,5.18,1.1,1.67.41,3.21.85,4.63,1.31v10.4Z"/><g class="cls-3"><path class="cls-1" d="M115.58,18.66H32.36c-14.05,0-25.43,11.38-25.43,25.42v83.23c0,14.04,11.38,25.42,25.43,25.42h83.22c14.05,0,25.43-11.38,25.43-25.42V44.08c0-14.04-11.38-25.42-25.43-25.42ZM120.08,79.17c0,12.68-8.52,22.96-19.02,22.96h-3.32l20.32,31.63h-38.26l-15.22-25.54v25.54H27.86v-58.77h58.06c2.35,0,4.25-2.28,4.25-5.11s-1.9-5.11-4.25-5.11H27.86v-27.14h73.2c10.5,0,19.02,10.28,19.02,22.96v18.58Z"/></g></g></g></svg>