<?xml version="1.0" encoding="UTF-8"?><svg xmlns="http://www.w3.org/2000/svg" xmlns:xlink="http://www.w3.org/1999/xlink" viewBox="0 0 650.32 319.49"><defs><style>.cls-1{fill:url(#linear-gradient);}.cls-2{isolation:isolate;}.cls-3{mix-blend-mode:color;}.cls-4{fill:#104440;}</style><linearGradient id="linear-gradient" x1="238.11" y1="101.84" x2="412.21" y2="101.84" gradientUnits="userSpaceOnUse"><stop offset="0" stop-color="#69f06e"/><stop offset="1" stop-color="#03ff9e"/></linearGradient></defs><g class="cls-2"><g id="Layer_1"><path class="cls-4" d="M24.88,291.21h-15.75v-58.32h39.48c4.24,0,7.85.44,10.8,1.32,2.96.88,5.36,2.12,7.22,3.74,1.85,1.61,3.2,3.56,4.03,5.84.83,2.28,1.25,4.82,1.25,7.62,0,2.46-.35,4.61-1.04,6.45-.69,1.84-1.63,3.42-2.8,4.73-1.17,1.32-2.54,2.43-4.1,3.33-1.56.91-3.2,1.66-4.92,2.25l19.1,23.05h-18.42l-17.66-21.48h-17.19v21.48ZM55.99,251.31c0-1.13-.15-2.09-.45-2.89-.3-.79-.81-1.44-1.55-1.93-.74-.49-1.72-.86-2.95-1.08-1.23-.23-2.77-.34-4.61-.34h-21.56v12.48h21.56c1.84,0,3.37-.11,4.61-.34,1.23-.23,2.21-.59,2.95-1.08.74-.49,1.25-1.14,1.55-1.93.3-.79.45-1.75.45-2.89Z"/><path class="cls-4" d="M89.44,291.21v-58.32h59.05v12.44h-42.87v9.64h40.67v12.44h-40.67v11.38h43.47v12.44h-59.64Z"/><path class="cls-4" d="M164.28,291.21v-58.32h15.75v45.55h42.58v12.78h-58.32Z"/><path class="cls-4" d="M282.07,280.17h-32.52l-5.48,11.04h-17.57l30.52-58.32h17.57l30.52,58.32h-17.57l-5.48-11.04ZM255.2,268.8h21.31l-10.61-21.48-10.7,21.48Z"/><path class="cls-4" d="M346.59,267.39v23.81h-15.71v-23.81l-28.27-34.51h17.66l18.51,23.47,18.42-23.47h17.66l-28.27,34.51Z"/><path class="cls-4" d="M484.93,275.12c0,2.26-.3,4.23-.89,5.9-.59,1.67-1.42,3.11-2.48,4.31-1.06,1.2-2.33,2.18-3.82,2.93-1.49.75-3.13,1.34-4.92,1.78-1.8.44-3.71.74-5.75.91-2.04.17-4.15.25-6.32.25h-42.32v-58.32h41.56c1.67,0,3.35.07,5.03.21,1.68.14,3.29.4,4.82.79,1.53.38,2.95.91,4.27,1.59s2.46,1.57,3.44,2.67,1.74,2.43,2.29,3.99c.55,1.56.83,3.4.83,5.52,0,3.79-.93,6.8-2.8,9.02-1.87,2.22-4.81,3.7-8.83,4.44,2.83.2,5.26.63,7.28,1.29,2.02.67,3.67,1.57,4.95,2.72,1.27,1.15,2.21,2.55,2.8,4.2.59,1.66.89,3.59.89,5.79ZM465.28,250.16c0-.74-.11-1.44-.34-2.1-.23-.67-.64-1.25-1.23-1.76-.59-.51-1.4-.92-2.42-1.23-1.02-.31-2.32-.47-3.91-.47h-23.22v10.95h23.22c1.58,0,2.89-.14,3.91-.42,1.02-.28,1.83-.66,2.42-1.15.59-.48,1-1.05,1.23-1.72.23-.66.34-1.36.34-2.1ZM468.93,273.29c0-1.33-.23-2.4-.68-3.2-.45-.81-1.16-1.43-2.12-1.87-.96-.44-2.21-.73-3.74-.87-1.53-.14-3.35-.21-5.48-.21h-22.75v12.35h22.75c2.12,0,3.95-.07,5.48-.21,1.53-.14,2.77-.44,3.74-.89.96-.45,1.67-1.08,2.12-1.89.45-.81.68-1.87.68-3.21Z"/><path class="cls-4" d="M565.97,279.79c-1.44,2.58-3.61,4.83-6.49,6.75-2.89,1.92-6.49,3.45-10.8,4.56-4.32,1.12-9.36,1.68-15.13,1.68s-10.83-.56-15.18-1.68c-4.34-1.12-7.96-2.64-10.85-4.56-2.89-1.92-5.05-4.17-6.49-6.75-1.44-2.57-2.17-5.32-2.17-8.23v-38.67h15.71v33.03c0,1.95.25,3.8.74,5.54.49,1.74,1.43,3.26,2.8,4.56,1.37,1.3,3.3,2.33,5.77,3.1,2.48.76,5.69,1.15,9.66,1.15s7.13-.38,9.59-1.15c2.46-.76,4.38-1.8,5.75-3.1,1.37-1.3,2.3-2.82,2.78-4.56.48-1.74.72-3.59.72-5.54v-33.03h15.75v38.67c0,2.92-.72,5.66-2.16,8.23Z"/><path class="cls-4" d="M639.7,249.31c-1.1-.54-2.56-1.15-4.37-1.83-1.81-.68-3.86-1.32-6.16-1.93-2.29-.61-4.78-1.12-7.47-1.53-2.69-.41-5.45-.62-8.28-.62-2.26,0-4.2.07-5.79.21-1.6.14-2.94.33-4.03.55-1.09.23-1.95.49-2.59.79-.64.3-1.12.6-1.46.91-.34.31-.56.62-.66.93-.1.31-.15.59-.15.85,0,.85.42,1.59,1.27,2.23s2.01,1.2,3.48,1.7c1.47.5,3.18.96,5.14,1.4,1.95.44,4.03.89,6.22,1.36,2.19.47,4.46.98,6.79,1.53,2.33.55,4.6,1.2,6.79,1.93,2.19.74,4.27,1.59,6.22,2.57,1.95.98,3.66,2.12,5.14,3.42,1.47,1.3,2.63,2.8,3.48,4.5.85,1.7,1.27,3.64,1.27,5.82,0,2.8-.5,5.21-1.49,7.22-.99,2.01-2.31,3.71-3.97,5.09-1.66,1.39-3.57,2.5-5.75,3.33-2.18.83-4.46,1.48-6.86,1.93-2.39.45-4.81.75-7.26.89-2.45.14-4.78.21-6.98.21-5.77,0-11.11-.47-16.02-1.42-4.91-.95-9.25-2.13-13.01-3.54v-13.92c3.88,2.15,8.3,3.84,13.27,5.05,4.97,1.22,10.28,1.83,15.94,1.83,3.34,0,6.06-.18,8.17-.53,2.11-.35,3.76-.81,4.95-1.36,1.19-.55,2-1.15,2.42-1.8.42-.65.64-1.27.64-1.87,0-.93-.42-1.75-1.27-2.44-.85-.69-2.01-1.3-3.48-1.83-1.47-.52-3.18-1-5.14-1.44-1.95-.44-4.03-.88-6.22-1.32-2.19-.44-4.45-.91-6.77-1.42-2.32-.51-4.58-1.11-6.77-1.8-2.19-.69-4.27-1.5-6.22-2.42-1.95-.92-3.67-2.01-5.14-3.27-1.47-1.26-2.63-2.72-3.48-4.37-.85-1.66-1.27-3.57-1.27-5.75,0-2.57.45-4.8,1.36-6.66.91-1.87,2.13-3.46,3.67-4.78,1.54-1.32,3.32-2.38,5.35-3.2,2.02-.82,4.15-1.46,6.39-1.91,2.24-.45,4.5-.76,6.79-.93s4.47-.25,6.54-.25c2.26,0,4.59.11,6.98.34,2.39.23,4.75.55,7.07.96,2.32.41,4.56.88,6.73,1.42,2.16.54,4.17,1.1,6.01,1.7v13.5Z"/><g class="cls-3"><path class="cls-1" d="M379.19,14.79h-108.06c-18.24,0-33.02,14.78-33.02,33.01v108.08c0,18.23,14.78,33.01,33.02,33.01h108.06c18.24,0,33.02-14.78,33.02-33.01V47.8c0-18.23-14.78-33.01-33.02-33.01ZM385.05,93.37c0,16.46-11.06,29.81-24.69,29.81h-4.32l26.39,41.08h-49.68l-19.76-33.17v33.17h-47.69v-76.31h75.39c3.05,0,5.52-2.97,5.52-6.64s-2.47-6.64-5.52-6.64h-75.39v-35.24h95.06c13.63,0,24.69,13.35,24.69,29.81v24.13Z"/></g></g></g></svg>